<mxfile host="app.diagrams.net" modified="2020-11-10T15:47:10.855Z" agent="5.0 (X11; Linux x86_64) AppleWebKit/537.36 (KHTML, like Gecko) Chrome/85.0.4183.102 Safari/537.36" etag="b28vNyoNSKQB0E8Ivt4I" version="13.9.3" type="github">
  <diagram id="R9y0cBMXeNlg3ZQP-FSb" name="Page-1">
    <mxGraphModel dx="1869" dy="803" grid="1" gridSize="10" guides="1" tooltips="1" connect="1" arrows="1" fold="1" page="1" pageScale="1" pageWidth="850" pageHeight="1100" math="0" shadow="0">
      <root>
        <mxCell id="0" />
        <mxCell id="1" parent="0" />
        <mxCell id="XJ3Yo-U74XfxD57NobTS-1" value="start" style="html=1;fillColor=#d5e8d4;strokeColor=#82b366;" vertex="1" parent="1">
          <mxGeometry x="150" y="50" width="110" height="50" as="geometry" />
        </mxCell>
        <mxCell id="XJ3Yo-U74XfxD57NobTS-2" value="end&lt;br&gt;" style="html=1;fillColor=#f8cecc;strokeColor=#b85450;" vertex="1" parent="1">
          <mxGeometry x="230" y="820" width="110" height="50" as="geometry" />
        </mxCell>
        <mxCell id="XJ3Yo-U74XfxD57NobTS-3" value="process&lt;br&gt;" style="html=1;fillColor=#fff2cc;strokeColor=#d6b656;" vertex="1" parent="1">
          <mxGeometry x="150" y="130" width="110" height="80" as="geometry" />
        </mxCell>
        <mxCell id="XJ3Yo-U74XfxD57NobTS-7" value="" style="edgeStyle=orthogonalEdgeStyle;rounded=0;orthogonalLoop=1;jettySize=auto;html=1;" edge="1" parent="1" source="XJ3Yo-U74XfxD57NobTS-5" target="XJ3Yo-U74XfxD57NobTS-11">
          <mxGeometry relative="1" as="geometry">
            <mxPoint x="360" y="320" as="targetPoint" />
            <Array as="points">
              <mxPoint x="340" y="280" />
              <mxPoint x="340" y="290" />
              <mxPoint x="380" y="290" />
              <mxPoint x="380" y="320" />
            </Array>
          </mxGeometry>
        </mxCell>
        <mxCell id="XJ3Yo-U74XfxD57NobTS-9" style="edgeStyle=orthogonalEdgeStyle;rounded=0;orthogonalLoop=1;jettySize=auto;html=1;exitX=0;exitY=0.5;exitDx=0;exitDy=0;" edge="1" parent="1" source="XJ3Yo-U74XfxD57NobTS-5">
          <mxGeometry relative="1" as="geometry">
            <mxPoint x="100" y="300" as="targetPoint" />
          </mxGeometry>
        </mxCell>
        <mxCell id="XJ3Yo-U74XfxD57NobTS-5" value="choice &#xa;if statement" style="rhombus;fillColor=#fff2cc;strokeColor=#d6b656;" vertex="1" parent="1">
          <mxGeometry x="160" y="220" width="110" height="100" as="geometry" />
        </mxCell>
        <mxCell id="XJ3Yo-U74XfxD57NobTS-10" value="false" style="html=1;fillColor=#f8cecc;strokeColor=#b85450;" vertex="1" parent="1">
          <mxGeometry x="-20" y="284" width="110" height="50" as="geometry" />
        </mxCell>
        <mxCell id="XJ3Yo-U74XfxD57NobTS-11" value="true" style="html=1;fillColor=#d5e8d4;strokeColor=#82b366;" vertex="1" parent="1">
          <mxGeometry x="420" y="270" width="110" height="50" as="geometry" />
        </mxCell>
        <mxCell id="XJ3Yo-U74XfxD57NobTS-14" value="data input&lt;br&gt;(can be computer&amp;nbsp;&lt;br&gt;data)" style="shape=parallelogram;perimeter=parallelogramPerimeter;whiteSpace=wrap;html=1;fixedSize=1;fillColor=#dae8fc;strokeColor=#6c8ebf;" vertex="1" parent="1">
          <mxGeometry x="130" y="350" width="150" height="90" as="geometry" />
        </mxCell>
        <mxCell id="XJ3Yo-U74XfxD57NobTS-15" value="user input&lt;br&gt;manual data input" style="shape=manualInput;whiteSpace=wrap;html=1;fillColor=#dae8fc;strokeColor=#6c8ebf;" vertex="1" parent="1">
          <mxGeometry x="360" y="360" width="80" height="80" as="geometry" />
        </mxCell>
        <mxCell id="XJ3Yo-U74XfxD57NobTS-17" value="tape data&lt;br&gt;ex: punch cards, magnetic tape, cds" style="shape=tapeData;whiteSpace=wrap;html=1;perimeter=ellipsePerimeter;fillColor=#dae8fc;strokeColor=#6c8ebf;" vertex="1" parent="1">
          <mxGeometry x="-10" y="340" width="130" height="120" as="geometry" />
        </mxCell>
        <mxCell id="XJ3Yo-U74XfxD57NobTS-19" value="data base" style="shape=cylinder3;whiteSpace=wrap;html=1;boundedLbl=1;backgroundOutline=1;size=15;fillColor=#dae8fc;strokeColor=#6c8ebf;" vertex="1" parent="1">
          <mxGeometry x="480" y="365" width="80" height="90" as="geometry" />
        </mxCell>
        <mxCell id="XJ3Yo-U74XfxD57NobTS-20" value="data from &lt;br&gt;the cloud" style="ellipse;shape=cloud;whiteSpace=wrap;html=1;fillColor=#dae8fc;strokeColor=#6c8ebf;" vertex="1" parent="1">
          <mxGeometry x="720" y="355" width="120" height="80" as="geometry" />
        </mxCell>
        <mxCell id="XJ3Yo-U74XfxD57NobTS-21" value="hard drive&lt;br&gt;" style="shape=cylinder3;whiteSpace=wrap;html=1;boundedLbl=1;backgroundOutline=1;size=15;rotation=90;fillColor=#dae8fc;strokeColor=#6c8ebf;" vertex="1" parent="1">
          <mxGeometry x="610" y="350" width="60" height="100" as="geometry" />
        </mxCell>
        <mxCell id="XJ3Yo-U74XfxD57NobTS-22" value="step by step process&lt;br style=&quot;padding: 0px ; margin: 0px&quot;&gt;assigning things&lt;br style=&quot;padding: 0px ; margin: 0px&quot;&gt;storing or using data&amp;nbsp;&lt;br style=&quot;padding: 0px ; margin: 0px&quot;&gt;in some way" style="text;html=1;strokeColor=none;fillColor=none;align=center;verticalAlign=middle;whiteSpace=wrap;rounded=0;" vertex="1" parent="1">
          <mxGeometry x="340" y="130" width="160" height="65" as="geometry" />
        </mxCell>
        <mxCell id="XJ3Yo-U74XfxD57NobTS-23" value="choice&lt;br style=&quot;padding: 0px ; margin: 0px&quot;&gt;if statements&lt;br style=&quot;padding: 0px ; margin: 0px&quot;&gt;one thing or another&lt;br style=&quot;padding: 0px ; margin: 0px&quot;&gt;one of two possibilties" style="text;html=1;strokeColor=none;fillColor=none;align=center;verticalAlign=middle;whiteSpace=wrap;rounded=0;" vertex="1" parent="1">
          <mxGeometry x="540" y="260" width="190" height="50" as="geometry" />
        </mxCell>
        <mxCell id="XJ3Yo-U74XfxD57NobTS-24" value="getting user input" style="text;html=1;strokeColor=none;fillColor=none;align=center;verticalAlign=middle;whiteSpace=wrap;rounded=0;" vertex="1" parent="1">
          <mxGeometry x="300" y="390" width="40" height="20" as="geometry" />
        </mxCell>
        <mxCell id="XJ3Yo-U74XfxD57NobTS-25" value="start of loop" style="strokeWidth=2;html=1;shape=mxgraph.flowchart.loop_limit;whiteSpace=wrap;direction=west;fillColor=#ffe6cc;strokeColor=#d79b00;" vertex="1" parent="1">
          <mxGeometry x="70" y="510" width="100" height="60" as="geometry" />
        </mxCell>
        <mxCell id="XJ3Yo-U74XfxD57NobTS-26" value="end of loop" style="strokeWidth=2;html=1;shape=mxgraph.flowchart.loop_limit;whiteSpace=wrap;fillColor=#ffe6cc;strokeColor=#d79b00;" vertex="1" parent="1">
          <mxGeometry x="190" y="510" width="100" height="60" as="geometry" />
        </mxCell>
        <mxCell id="XJ3Yo-U74XfxD57NobTS-27" value="end loop" style="strokeWidth=2;html=1;shape=mxgraph.flowchart.extract_or_measurement;whiteSpace=wrap;fillColor=#ffe6cc;strokeColor=#d79b00;" vertex="1" parent="1">
          <mxGeometry x="440" y="500" width="95" height="60" as="geometry" />
        </mxCell>
        <mxCell id="XJ3Yo-U74XfxD57NobTS-28" value="start loop&lt;br&gt;" style="strokeWidth=2;html=1;shape=mxgraph.flowchart.merge_or_storage;whiteSpace=wrap;fillColor=#ffe6cc;strokeColor=#d79b00;" vertex="1" parent="1">
          <mxGeometry x="330" y="510" width="95" height="60" as="geometry" />
        </mxCell>
        <mxCell id="XJ3Yo-U74XfxD57NobTS-29" value="delay&lt;br&gt;" style="strokeWidth=2;html=1;shape=mxgraph.flowchart.delay;whiteSpace=wrap;" vertex="1" parent="1">
          <mxGeometry x="235" y="590" width="100" height="60" as="geometry" />
        </mxCell>
        <mxCell id="XJ3Yo-U74XfxD57NobTS-30" value="display" style="shape=display;whiteSpace=wrap;html=1;" vertex="1" parent="1">
          <mxGeometry x="245" y="670" width="80" height="40" as="geometry" />
        </mxCell>
        <mxCell id="XJ3Yo-U74XfxD57NobTS-31" value="pre-defined process:&lt;br&gt;a set of processes&lt;br&gt;we have defined&amp;nbsp;&lt;br&gt;beforehand" style="shape=process;whiteSpace=wrap;html=1;backgroundOutline=1;" vertex="1" parent="1">
          <mxGeometry x="225" y="720" width="155" height="80" as="geometry" />
        </mxCell>
      </root>
    </mxGraphModel>
  </diagram>
</mxfile>
